<svg width="433" height="142" viewBox="0 0 433 142" fill="none" xmlns="http://www.w3.org/2000/svg">
<path d="M151.729 100.685H138.374V33.2928L151.729 31.1343V53.7289C152.621 53.426 153.77 53.1399 155.175 52.8706C156.58 52.6013 157.939 52.4666 159.252 52.4666C163.081 52.4666 166.262 52.9884 168.795 54.0319C171.336 55.0837 173.368 56.5648 174.892 58.475C176.415 60.3853 177.492 62.6531 178.123 65.2787C178.746 67.9126 179.057 70.841 179.057 74.064V100.685H165.715V75.6797C165.715 71.3796 165.159 68.3333 164.049 66.5409C162.946 64.7485 160.901 63.8523 157.914 63.8523C156.719 63.8523 155.6 63.9575 154.556 64.1679C153.505 64.3782 152.562 64.6012 151.729 64.8369V100.685ZM209.173 91.3697C210.486 91.3697 211.74 91.336 212.935 91.2687C214.13 91.2098 215.089 91.1215 215.813 91.0037V80.8803C215.274 80.7625 214.467 80.6404 213.389 80.5142C212.312 80.3964 211.328 80.3375 210.436 80.3375C209.173 80.3375 207.991 80.4132 206.889 80.5647C205.786 80.7162 204.814 80.9981 203.973 81.4104C203.14 81.8312 202.483 82.3992 202.004 83.1145C201.524 83.8382 201.284 84.7344 201.284 85.8031C201.284 87.8985 201.987 89.3501 203.392 90.1579C204.798 90.9658 206.725 91.3697 209.173 91.3697ZM208.101 52.2899C212.047 52.2899 215.333 52.7359 217.959 53.6279C220.584 54.5283 222.688 55.8159 224.27 57.4905C225.861 59.1651 226.984 61.1973 227.64 63.5872C228.297 65.9771 228.625 68.6321 228.625 71.5521V99.3346C226.715 99.7554 224.056 100.252 220.647 100.824C217.239 101.388 213.116 101.67 208.277 101.67C205.231 101.67 202.467 101.401 199.984 100.862C197.51 100.323 195.377 99.444 193.584 98.2238C191.792 96.9952 190.416 95.3963 189.457 93.4272C188.506 91.4581 188.03 89.0387 188.03 86.1692C188.03 83.4174 188.582 81.0864 189.684 79.1762C190.786 77.266 192.263 75.7428 194.115 74.6068C195.966 73.4708 198.087 72.6503 200.476 72.1454C202.866 71.6321 205.349 71.3754 207.924 71.3754C209.657 71.3754 211.193 71.4511 212.531 71.6026C213.877 71.7541 214.971 71.9476 215.813 72.1833V70.9336C215.813 68.6615 215.123 66.8397 213.743 65.468C212.371 64.0879 209.981 63.3979 206.573 63.3979C204.301 63.3979 202.063 63.562 199.858 63.8902C197.645 64.2183 195.73 64.6812 194.115 65.2787L192.411 54.5241C193.193 54.2885 194.165 54.0361 195.326 53.7668C196.496 53.4975 197.767 53.2577 199.138 53.0473C200.51 52.8369 201.957 52.6602 203.481 52.5171C205.004 52.3657 206.544 52.2899 208.101 52.2899ZM254.253 91.092C256.702 91.092 258.435 90.8522 259.453 90.3725C260.472 89.9013 260.981 88.9756 260.981 87.5955C260.981 86.5268 260.32 85.5885 258.999 84.7807C257.686 83.9728 255.688 83.0598 253.003 82.0416C250.908 81.2674 249.01 80.4595 247.31 79.618C245.61 78.7849 244.163 77.7877 242.968 76.6264C241.773 75.4567 240.843 74.064 240.178 72.4483C239.522 70.841 239.194 68.9014 239.194 66.6293C239.194 62.2113 240.839 58.7149 244.129 56.1398C247.411 53.5732 251.922 52.2899 257.661 52.2899C260.53 52.2899 263.278 52.5424 265.903 53.0473C268.537 53.5606 270.629 54.116 272.177 54.7135L269.854 65.1019C268.298 64.5634 266.606 64.0879 264.78 63.6756C262.962 63.2548 260.918 63.0444 258.645 63.0444C254.463 63.0444 252.372 64.2099 252.372 66.5409C252.372 67.0795 252.46 67.5549 252.637 67.9673C252.822 68.388 253.184 68.792 253.723 69.1791C254.253 69.5662 254.981 69.9869 255.906 70.4413C256.84 70.8873 258.023 71.3796 259.453 71.9182C262.382 72.9953 264.801 74.0556 266.711 75.0991C268.622 76.1426 270.132 77.2786 271.243 78.5072C272.345 79.7274 273.119 81.0864 273.565 82.5843C274.011 84.0738 274.234 85.8073 274.234 87.7849C274.234 92.4384 272.488 95.9602 268.996 98.35C265.504 100.74 260.56 101.935 254.164 101.935C249.982 101.935 246.502 101.577 243.725 100.862C240.948 100.147 239.021 99.5492 237.944 99.0695L240.178 88.2267C242.451 89.1271 244.782 89.8297 247.171 90.3346C249.561 90.8396 251.922 91.092 254.253 91.092ZM295.573 76.7527C295.573 80.8761 296.499 84.1916 298.35 86.6993C300.201 89.2154 302.949 90.4735 306.593 90.4735C307.788 90.4735 308.894 90.4272 309.912 90.3346C310.922 90.2421 311.76 90.1369 312.424 90.0191V65.7331C311.583 65.1945 310.489 64.7443 309.142 64.3824C307.804 64.029 306.445 63.8523 305.065 63.8523C298.737 63.8523 295.573 68.1524 295.573 76.7527ZM325.766 31.1343V99.1579C324.572 99.5197 323.2 99.8648 321.652 100.193C320.095 100.521 318.466 100.803 316.767 101.039C315.067 101.283 313.333 101.48 311.566 101.632C309.807 101.775 308.12 101.847 306.504 101.847C302.617 101.847 299.149 101.278 296.103 100.142C293.057 99.0064 290.49 97.3781 288.403 95.2575C286.308 93.1369 284.709 90.5703 283.607 87.5577C282.504 84.5366 281.953 81.1453 281.953 77.3838C281.953 73.5633 282.429 70.1131 283.38 67.0332C284.339 63.9533 285.715 61.3404 287.507 59.1945C289.3 57.0403 291.496 55.3951 294.096 54.2591C296.688 53.123 299.659 52.555 303.008 52.555C304.859 52.555 306.517 52.7359 307.981 53.0978C309.445 53.4512 310.926 53.9603 312.424 54.6251V33.2928L325.766 31.1343ZM336.084 77.4721C336.084 73.2898 336.724 69.6293 338.003 66.4904C339.29 63.36 340.978 60.7471 343.065 58.6518C345.16 56.5648 347.567 54.9828 350.285 53.9056C353.003 52.8285 355.797 52.2899 358.666 52.2899C365.356 52.2899 370.641 54.3348 374.52 58.4245C378.408 62.5227 380.352 68.5437 380.352 76.4876C380.352 77.2618 380.323 78.1117 380.264 79.0374C380.205 79.963 380.146 80.7877 380.087 81.5114H349.792C350.087 84.2547 351.37 86.4342 353.642 88.0499C355.914 89.6656 358.961 90.4735 362.781 90.4735C365.23 90.4735 367.637 90.2463 370.001 89.7919C372.358 89.3459 374.285 88.7947 375.783 88.1383L377.575 98.9812C376.86 99.343 375.905 99.7007 374.71 100.054C373.515 100.416 372.185 100.732 370.721 101.001C369.257 101.27 367.687 101.493 366.013 101.67C364.338 101.847 362.663 101.935 360.989 101.935C356.748 101.935 353.058 101.308 349.919 100.054C346.788 98.8002 344.192 97.0836 342.131 94.904C340.069 92.7245 338.546 90.1411 337.561 87.1537C336.577 84.1664 336.084 80.9392 336.084 77.4721ZM349.792 72.36H367.452C367.384 71.2239 367.187 70.1215 366.858 69.0528C366.53 67.9757 366.025 67.0164 365.344 66.1749C364.654 65.3418 363.787 64.6559 362.743 64.1174C361.7 63.5788 360.4 63.3095 358.843 63.3095C357.345 63.3095 356.062 63.5662 354.993 64.0795C353.916 64.5844 353.02 65.2534 352.304 66.0865C351.581 66.928 351.025 67.9 350.638 69.0023C350.251 70.1047 349.969 71.2239 349.792 72.36ZM414.59 100.685H403.469C400.423 94.7105 397.33 87.7218 394.191 79.719C391.061 71.7078 388.09 62.9813 385.28 53.5396H399.442C400.04 55.8706 400.743 58.3951 401.55 61.1132C402.358 63.8313 403.191 66.583 404.05 69.3684C404.917 72.1454 405.783 74.8466 406.65 77.4721C407.517 80.0977 408.371 82.4876 409.212 84.6418C409.987 82.4876 410.824 80.0977 411.724 77.4721C412.616 74.8466 413.496 72.1454 414.362 69.3684C415.229 66.583 416.067 63.8313 416.874 61.1132C417.682 58.3951 418.385 55.8706 418.982 53.5396H432.779C429.968 62.9813 426.998 71.7078 423.867 79.719C420.729 87.7218 417.636 94.7105 414.59 100.685Z" fill="#333747"/>
<path d="M69.0691 15.2906C67.4683 8.24689 73.5515 2.16368 80.5952 3.76452C84.117 4.56495 86.9986 7.44647 87.799 10.9683C89.3998 18.012 83.3166 24.0952 76.2729 22.4944C72.7511 21.694 69.8695 18.8125 69.0691 15.2906ZM106.849 105.098C101.406 104.298 96.9238 108.94 97.7242 114.223C98.2045 117.585 100.926 120.306 104.288 120.786C109.731 121.587 114.213 116.944 113.413 111.661C113.092 108.46 110.211 105.578 106.849 105.098ZM63.6262 58.9937C57.0628 58.9937 51.6199 64.4365 51.6199 71C51.6199 77.5634 57.0628 83.0063 63.6262 83.0063C70.1897 83.0063 75.6326 77.5634 75.6326 71C75.6326 64.4365 70.1897 58.9937 63.6262 58.9937ZM112.932 71C124.778 84.287 129.741 97.4139 124.618 106.219C123.018 109.1 120.296 111.341 116.934 112.942C116.934 111.181 116.454 109.58 115.814 108.14C117.895 107.019 119.496 105.578 120.616 103.817C124.618 96.9337 119.976 86.0479 109.891 74.5218C105.248 79.3244 99.8053 83.9668 93.8822 88.2891C93.0818 95.8131 91.8011 102.857 90.0402 109.1C91.8011 109.42 93.562 109.74 95.1629 110.061C94.8427 111.021 94.6826 111.982 94.6826 113.102C94.6826 113.743 94.6826 114.383 94.8427 114.863C92.7616 114.543 90.6805 114.223 88.5994 113.743C82.6763 130.711 73.8716 141.437 63.6262 141.437C53.3808 141.437 44.5762 130.711 38.9732 113.743C36.7321 114.223 34.4909 114.543 32.4098 114.863C29.5283 115.183 26.8068 115.343 24.2455 115.343C13.6799 115.343 6.15593 112.142 2.63407 106.219C0.713059 102.857 0.232806 98.8547 1.03323 94.5324C2.3139 95.4929 3.91475 96.1332 5.67568 96.1332C5.35551 99.0148 5.67568 101.736 6.95635 103.817C10.158 109.42 19.2829 111.661 31.9295 110.061C33.8505 109.74 35.7716 109.42 37.6926 109.1C35.9316 102.857 34.651 95.8131 33.8505 88.2891C27.7673 83.9668 22.4845 79.3244 17.682 74.5218C16.4013 75.9626 15.1207 77.5634 14.0001 79.0042C13.84 79.3244 13.6799 79.4845 13.3597 79.8046C12.3992 78.8441 11.2786 78.2038 10.158 77.7235C9.99795 77.2433 9.99796 77.0832 9.83787 76.6029C11.2786 74.6819 12.7194 72.921 14.3202 71C12.7194 69.2391 11.2786 67.6382 9.99796 65.8773C0.873144 53.8709 -1.68821 43.3054 2.63407 35.7814C6.95635 28.2574 17.5219 25.2158 32.4098 27.1369C34.4909 27.457 36.7321 27.7772 38.9732 28.2574C44.4161 11.2885 53.3808 0.562836 63.6262 0.562836C66.1876 0.562836 68.7489 1.20317 71.1502 2.64393C69.7095 3.60444 68.5889 4.88512 67.6284 6.16579C66.3477 5.68554 64.9069 5.36537 63.6262 5.36537C55.7821 5.36537 48.4182 14.8103 43.6157 29.378C50.0191 30.9789 56.7426 33.3801 63.6262 36.4217C70.3498 33.3801 77.2334 30.9789 83.6368 29.378C83.1565 28.0974 82.6763 26.6566 82.196 25.3759C83.7969 24.8957 85.2376 24.0952 86.5183 23.1347C87.1587 24.7356 87.799 26.4965 88.4393 28.2574C90.6805 27.7772 92.9217 27.457 95.0028 27.1369C109.891 25.2158 120.456 28.2574 124.778 35.7814C129.101 43.3054 126.539 53.8709 117.415 65.8773C115.974 67.4781 114.533 69.2391 112.932 71ZM89.72 32.8999C91.4809 39.1432 92.7616 46.1869 93.562 53.7109C99.6452 58.1932 105.088 62.8357 109.731 67.4781C111.011 66.0374 112.292 64.4365 113.413 62.9958C121.097 52.9104 123.658 43.7856 120.456 38.1827C117.895 33.7003 111.652 31.4591 103.007 31.4591C100.766 31.4591 98.2045 31.6192 95.483 31.9394C93.562 32.0995 91.641 32.4196 89.72 32.8999ZM69.3893 39.1432C72.591 40.744 75.7927 42.505 78.9943 44.2659C82.196 46.1869 85.2376 47.9478 88.1192 50.0289C87.3187 44.2659 86.1981 38.9831 84.9175 34.0205C79.9549 35.3012 74.6721 36.902 69.3893 39.1432ZM88.9196 56.2722C85.0776 53.5508 80.9154 50.8293 76.5931 48.268C72.2708 45.7066 67.9485 43.4655 63.6262 41.5444C59.304 43.4655 54.9817 45.8667 50.6594 48.268C46.3371 50.8293 42.1749 53.3907 38.3329 56.1121C37.8527 60.9147 37.6926 65.7172 37.6926 70.8399C37.6926 75.8025 38.0127 80.7651 38.3329 85.5677C42.1749 88.2891 46.3371 91.0105 50.6594 93.4118C54.9817 95.9732 59.304 98.2143 63.6262 100.135C67.9485 98.2143 72.2708 95.8131 76.5931 93.4118C80.9154 90.8505 85.0776 88.2891 88.9196 85.5677C89.3998 80.7651 89.5599 75.9626 89.5599 70.8399C89.72 66.0374 89.3998 61.0747 88.9196 56.2722ZM42.1749 33.8604C40.7342 38.823 39.7737 44.1058 38.9732 49.8688C41.8548 47.9478 45.0564 46.0268 48.0981 44.1058C51.2997 42.3449 54.5014 40.5839 57.7031 38.9831C52.4203 36.902 47.2976 35.1411 42.1749 33.8604ZM13.84 62.9958C14.9606 64.4365 16.2412 66.0374 17.5219 67.4781C22.1644 62.6756 27.6072 58.0331 33.6905 53.7109C34.4909 46.1869 35.7716 39.1432 37.5325 32.8999C35.6115 32.4196 33.6905 32.0995 31.7694 31.9394C29.048 31.6192 26.6467 31.4591 24.2455 31.4591C15.6009 31.4591 9.35762 33.8604 6.79627 38.1827C3.43449 43.7856 5.99585 52.7504 13.84 62.9958ZM33.0501 81.8857C32.89 78.3639 32.7299 74.6819 32.7299 71C32.7299 67.318 32.89 63.6361 33.0501 60.1142C28.5678 63.6361 24.4056 67.318 20.7236 71C24.4056 74.6819 28.5678 78.3639 33.0501 81.8857ZM42.1749 108.14C47.1375 106.859 52.4203 105.098 57.7031 103.017C54.5014 101.416 51.2997 99.6551 48.0981 97.8942C44.8964 96.1332 41.8548 94.2122 38.9732 92.1311C39.7737 97.7341 40.8943 103.177 42.1749 108.14ZM83.6368 112.622C77.2334 111.021 70.5099 108.62 63.6262 105.578C56.7426 108.62 50.0191 111.021 43.6157 112.622C48.4182 127.19 55.622 136.635 63.6262 136.635C71.4704 136.635 78.6742 127.19 83.6368 112.622ZM88.2792 91.971C85.3977 93.8921 82.196 95.8131 79.1544 97.7341C75.9527 99.495 72.7511 101.256 69.5494 102.857C74.8322 104.938 80.1149 106.699 85.0776 107.979C86.3582 103.177 87.4788 97.7341 88.2792 91.971ZM106.369 71C102.847 67.318 98.6847 63.6361 94.0423 60.1142C94.2024 63.6361 94.3625 67.318 94.3625 71C94.3625 74.6819 94.2024 78.3639 94.0423 81.8857C98.6847 78.3639 102.687 74.6819 106.369 71ZM5.35551 92.9316C9.67779 93.5719 13.3597 89.8899 12.7194 85.5677C12.2391 82.8462 10.158 80.605 7.43661 80.2849C3.11433 79.6445 -0.567617 83.3265 0.0727208 87.6488C0.552974 90.3702 2.63407 92.4513 5.35551 92.9316Z" fill="#333747"/>
<path d="M56.8375 70.9965C56.8375 72.7402 57.5302 74.4124 58.7631 75.6454C59.9961 76.8783 61.6683 77.571 63.412 77.571C65.1557 77.571 66.8279 76.8783 68.0609 75.6454C69.2938 74.4124 69.9865 72.7402 69.9865 70.9965C69.9865 69.2529 69.2938 67.5806 68.0609 66.3477C66.8279 65.1147 65.1557 64.4221 63.412 64.4221C61.6683 64.4221 59.9961 65.1147 58.7631 66.3477C57.5302 67.5806 56.8375 69.2529 56.8375 70.9965Z" fill="#40BF8E"/>
<path d="M102.021 112.974C102.021 113.867 102.376 114.723 103.008 115.355C103.639 115.986 104.496 116.341 105.389 116.341C106.282 116.341 107.139 115.986 107.77 115.355C108.402 114.723 108.757 113.867 108.757 112.974C108.757 112.08 108.402 111.224 107.77 110.592C107.139 109.961 106.282 109.606 105.389 109.606C104.496 109.606 103.639 109.961 103.008 110.592C102.376 111.224 102.021 112.08 102.021 112.974Z" fill="#40BF8E"/>
<path d="M73.7787 13.1263C73.7787 14.3277 74.2559 15.4799 75.1055 16.3294C75.955 17.1789 77.1072 17.6562 78.3086 17.6562C79.51 17.6562 80.6622 17.1789 81.5118 16.3294C82.3613 15.4799 82.8385 14.3277 82.8385 13.1263C82.8385 11.9248 82.3613 10.7726 81.5118 9.92311C80.6622 9.07359 79.51 8.59633 78.3086 8.59633C77.1072 8.59633 75.955 9.07359 75.1055 9.92311C74.2559 10.7726 73.7787 11.9248 73.7787 13.1263Z" fill="#40BF8E"/>
<path d="M3.77164 86.6723C3.77164 87.3363 4.03541 87.9731 4.50493 88.4426C4.97445 88.9121 5.61126 89.1759 6.27526 89.1759C6.93927 89.1759 7.57607 88.9121 8.04559 88.4426C8.51512 87.9731 8.77889 87.3363 8.77889 86.6723C8.77889 86.0083 8.51512 85.3715 8.04559 84.902C7.57607 84.4324 6.93927 84.1687 6.27526 84.1687C5.61126 84.1687 4.97445 84.4324 4.50493 84.902C4.03541 85.3715 3.77164 86.0083 3.77164 86.6723Z" fill="#40BF8E"/>
</svg>
